<svg width="488" height="641" viewBox="0 0 488 641" fill="none" xmlns="http://www.w3.org/2000/svg">
<path d="M186.18 449.674C181.367 449.674 177.156 448.17 173.546 445.162C169.936 441.552 168.131 437.34 168.131 432.527C168.131 428.917 168.131 425.608 168.131 422.6C168.131 418.99 168.131 415.38 168.131 411.77C171.741 390.712 178.66 371.76 188.888 354.914C199.718 337.466 212.052 321.522 225.89 307.082C240.329 292.642 254.167 279.105 267.404 266.47C280.64 253.836 291.771 241.502 300.796 229.469C310.422 216.834 315.536 204.199 316.138 191.565C317.341 178.328 314.634 167.198 308.015 158.173C301.999 149.148 293.275 142.229 281.843 137.416C271.014 132.602 259.281 130.196 246.647 130.196C222.581 130.196 203.628 135.912 189.79 147.343C175.952 158.774 166.025 175.621 160.009 197.882C157.602 204.5 154.293 209.915 150.081 214.127C145.87 217.737 139.853 219.542 132.032 219.542H21.929C15.9125 219.542 10.7984 217.436 6.58683 213.224C2.37525 208.411 0.269461 202.394 0.269461 195.175C0.871115 171.108 6.58683 147.644 17.4166 124.781C28.848 101.918 45.0927 81.1611 66.1506 62.5098C87.8101 43.2569 114.584 28.2156 146.471 17.3858C178.359 5.95437 215.06 0.238659 256.574 0.238659C301.698 0.238659 339.301 5.65355 369.384 16.4833C399.467 27.3131 422.931 41.452 439.778 58.8999C457.226 76.3479 469.559 94.9991 476.779 114.854C483.999 134.107 487.007 152.156 485.804 169.003C485.202 190.662 480.991 210.216 473.169 227.664C465.348 245.112 455.421 261.356 443.388 276.398C431.956 290.837 419.622 304.976 406.386 318.814C393.751 332.051 382.019 345.588 371.189 359.426C360.359 372.662 352.237 386.801 346.822 401.843C345.619 406.054 344.415 410.266 343.212 414.477C342.009 418.087 341.106 421.998 340.505 426.21C336.293 434.031 332.382 440.048 328.772 444.259C325.163 447.869 319.748 449.674 312.528 449.674H186.18ZM187.985 641C181.367 641 175.952 638.894 171.741 634.683C167.529 630.471 165.423 625.056 165.423 618.438V515.555C165.423 509.539 167.529 504.425 171.741 500.213C175.952 495.4 181.367 492.993 187.985 492.993H303.503C310.121 492.993 315.536 495.4 319.748 500.213C324.561 504.425 326.967 509.539 326.967 515.555V618.438C326.967 625.056 324.561 630.471 319.748 634.683C315.536 638.894 310.121 641 303.503 641H187.985Z" fill="#E1113B"/>
</svg>
