<svg width="33" height="33" viewBox="0 0 33 33" fill="none" xmlns="http://www.w3.org/2000/svg">
<path d="M15.5475 19.72C15.4275 19.72 15.3275 19.6867 15.2475 19.62C15.1675 19.54 15.1275 19.4333 15.1275 19.3C15.1275 19.1667 15.1275 19.0333 15.1275 18.9C15.1275 18.7667 15.1275 18.6333 15.1275 18.5C15.1542 17.9267 15.2808 17.42 15.5075 16.98C15.7342 16.54 16.0075 16.14 16.3275 15.78C16.6608 15.42 16.9942 15.08 17.3275 14.76C17.6608 14.4267 17.9408 14.0933 18.1675 13.76C18.4075 13.4267 18.5542 13.0733 18.6075 12.7C18.6608 12.22 18.5675 11.82 18.3275 11.5C18.0875 11.1667 17.7608 10.9133 17.3475 10.74C16.9342 10.5667 16.5075 10.48 16.0675 10.48C15.3608 10.48 14.7542 10.6667 14.2475 11.04C13.7542 11.4 13.4275 12.0133 13.2675 12.88C13.2275 13.04 13.1608 13.1533 13.0675 13.22C12.9742 13.2867 12.8675 13.32 12.7475 13.32H11.7875C11.6675 13.32 11.5608 13.28 11.4675 13.2C11.3875 13.12 11.3475 13.0133 11.3475 12.88C11.3608 12.3333 11.4808 11.8133 11.7075 11.32C11.9342 10.8267 12.2542 10.3933 12.6675 10.02C13.0942 9.64667 13.5942 9.35333 14.1675 9.14C14.7542 8.91333 15.4075 8.8 16.1275 8.8C16.9408 8.8 17.6342 8.91333 18.2075 9.14C18.7942 9.35333 19.2608 9.64667 19.6075 10.02C19.9675 10.38 20.2275 10.78 20.3875 11.22C20.5475 11.66 20.6142 12.1 20.5875 12.54C20.5475 13.0733 20.4142 13.5533 20.1875 13.98C19.9608 14.3933 19.6875 14.78 19.3675 15.14C19.0475 15.4867 18.7208 15.8333 18.3875 16.18C18.0675 16.5133 17.7875 16.8667 17.5475 17.24C17.3208 17.6 17.1942 17.9933 17.1675 18.42C17.1542 18.5667 17.1408 18.7133 17.1275 18.86C17.1275 18.9933 17.1275 19.1267 17.1275 19.26C17.1008 19.4067 17.0475 19.52 16.9675 19.6C16.8875 19.68 16.7742 19.72 16.6275 19.72H15.5475ZM15.3875 23C15.2542 23 15.1408 22.96 15.0475 22.88C14.9675 22.7867 14.9275 22.6733 14.9275 22.54V21.32C14.9275 21.1867 14.9675 21.08 15.0475 21C15.1408 20.9067 15.2542 20.86 15.3875 20.86H16.6875C16.8342 20.86 16.9475 20.9067 17.0275 21C17.1208 21.08 17.1675 21.1867 17.1675 21.32V22.54C17.1675 22.6733 17.1208 22.7867 17.0275 22.88C16.9475 22.96 16.8342 23 16.6875 23H15.3875Z" fill="white"/>
<circle cx="16.5" cy="16.5" r="16" stroke="white"/>
</svg>
