<svg width="84" height="70" viewBox="0 0 84 70" fill="none" xmlns="http://www.w3.org/2000/svg">
<mask id="path-1-outside-1_149_78" maskUnits="userSpaceOnUse" x="0" y="12.3799" width="84" height="58" fill="black">
<rect fill="white" y="12.3799" width="84" height="58"/>
<path d="M81 14.3798V21.9661V39.0483V57.1092V67.6337V68.0929L82 67.0929H76.5932H62.9321H44.8555H26.2025H10.8135H2.52719H1.99999C2.33333 67.4262 2.66665 67.7595 2.99999 68.0929V60.5066V43.4244V25.3635V14.839V14.3798L1.99999 15.3798H7.40678H21.0679H39.1445H57.7975H73.1865H81.4728H82C83.2898 15.3798 83.2898 13.3799 82 13.3799H76.5932H62.9321H44.8555H26.2025H10.8135H2.52719H1.99999C1.4551 13.3799 1 13.835 1 14.3799V21.9661V39.0483V57.1093V67.6338V68.0929C1 68.6378 1.4551 69.0929 1.99999 69.0929H7.40678H21.0679H39.1445H57.7975H73.1865H81.4728H82C82.5449 69.0929 83 68.6378 83 68.0929V60.5067V43.4245V25.3635V14.8391V14.3799C83 13.0908 81.0001 13.0908 81.0001 14.3799L81 14.3798Z"/>
</mask>
<path d="M81 14.3798V21.9661V39.0483V57.1092V67.6337V68.0929L82 67.0929H76.5932H62.9321H44.8555H26.2025H10.8135H2.52719H1.99999C2.33333 67.4262 2.66665 67.7595 2.99999 68.0929V60.5066V43.4244V25.3635V14.839V14.3798L1.99999 15.3798H7.40678H21.0679H39.1445H57.7975H73.1865H81.4728H82C83.2898 15.3798 83.2898 13.3799 82 13.3799H76.5932H62.9321H44.8555H26.2025H10.8135H2.52719H1.99999C1.4551 13.3799 1 13.835 1 14.3799V21.9661V39.0483V57.1093V67.6338V68.0929C1 68.6378 1.4551 69.0929 1.99999 69.0929H7.40678H21.0679H39.1445H57.7975H73.1865H81.4728H82C82.5449 69.0929 83 68.6378 83 68.0929V60.5067V43.4245V25.3635V14.8391V14.3799C83 13.0908 81.0001 13.0908 81.0001 14.3799L81 14.3798Z" fill="#D71635"/>
<path d="M81 14.3798L81.4409 13.9728L80.4 12.8452V14.3798H81ZM81 68.0929H80.4V69.5414L81.4243 68.5171L81 68.0929ZM82 67.0929L82.4243 67.5172L83.4485 66.4929H82V67.0929ZM1.99999 67.0929V66.4929H0.551466L1.57573 67.5172L1.99999 67.0929ZM2.99999 68.0929L2.57573 68.5171L3.59999 69.5414V68.0929H2.99999ZM2.99999 14.3798H3.59999V12.9313L2.57573 13.9555L2.99999 14.3798ZM1.99999 15.3798L1.57573 14.9555L0.551466 15.9798H1.99999V15.3798ZM81.0001 14.3799L80.5592 14.7868L81.6001 15.9145V14.3799H81.0001ZM80.4 14.3798V21.9661H81.6V14.3798H80.4ZM80.4 21.9661V39.0483H81.6V21.9661H80.4ZM80.4 39.0483V57.1092H81.6V39.0483H80.4ZM80.4 57.1092V67.6337H81.6V57.1092H80.4ZM80.4 67.6337V68.0929H81.6V67.6337H80.4ZM81.4243 68.5171L82.4243 67.5172L81.5757 66.6686L80.5757 67.6686L81.4243 68.5171ZM82 66.4929H76.5932V67.6929H82V66.4929ZM76.5932 66.4929H62.9321V67.6929H76.5932V66.4929ZM62.9321 66.4929H44.8555V67.6929H62.9321V66.4929ZM44.8555 66.4929H26.2025V67.6929H44.8555V66.4929ZM26.2025 66.4929H10.8135V67.6929H26.2025V66.4929ZM10.8135 66.4929H2.52719V67.6929H10.8135V66.4929ZM2.52719 66.4929H1.99999V67.6929H2.52719V66.4929ZM1.57573 67.5172C1.7424 67.6838 1.90906 67.8505 2.07573 68.0172C2.24239 68.1838 2.40906 68.3505 2.57573 68.5171L3.42425 67.6686C3.25758 67.5019 3.09092 67.3353 2.92426 67.1686C2.75759 67.002 2.59093 66.8353 2.42426 66.6686L1.57573 67.5172ZM3.59999 68.0929V60.5066H2.39999V68.0929H3.59999ZM3.59999 60.5066V43.4244H2.39999V60.5066H3.59999ZM3.59999 43.4244V25.3635H2.39999V43.4244H3.59999ZM3.59999 25.3635V14.839H2.39999V25.3635H3.59999ZM3.59999 14.839V14.3798H2.39999V14.839H3.59999ZM2.57573 13.9555L1.57573 14.9555L2.42426 15.8041L3.42425 14.8041L2.57573 13.9555ZM1.99999 15.9798H7.40678V14.7798H1.99999V15.9798ZM7.40678 15.9798H21.0679V14.7798H7.40678V15.9798ZM21.0679 15.9798H39.1445V14.7798H21.0679V15.9798ZM39.1445 15.9798H57.7975V14.7798H39.1445V15.9798ZM57.7975 15.9798H73.1865V14.7798H57.7975V15.9798ZM73.1865 15.9798H81.4728V14.7798H73.1865V15.9798ZM81.4728 15.9798H82V14.7798H81.4728V15.9798ZM82 15.9798C82.4923 15.9798 82.9021 15.7823 83.1804 15.4585C83.4481 15.1473 83.5673 14.7524 83.5673 14.3798C83.5673 14.0073 83.4481 13.6124 83.1804 13.3012C82.9021 12.9774 82.4923 12.7799 82 12.7799V13.9799C82.1526 13.9799 82.2265 14.0323 82.2706 14.0836C82.3254 14.1473 82.3673 14.2524 82.3673 14.3798C82.3673 14.5073 82.3254 14.6124 82.2706 14.6761C82.2265 14.7274 82.1526 14.7798 82 14.7798V15.9798ZM82 12.7799H76.5932V13.9799H82V12.7799ZM76.5932 12.7799H62.9321V13.9799H76.5932V12.7799ZM62.9321 12.7799H44.8555V13.9799H62.9321V12.7799ZM44.8555 12.7799H26.2025V13.9799H44.8555V12.7799ZM26.2025 12.7799H10.8135V13.9799H26.2025V12.7799ZM10.8135 12.7799H2.52719V13.9799H10.8135V12.7799ZM2.52719 12.7799H1.99999V13.9799H2.52719V12.7799ZM1.99999 12.7799C1.12373 12.7799 0.4 13.5036 0.4 14.3799H1.6C1.6 14.1664 1.78647 13.9799 1.99999 13.9799V12.7799ZM0.4 14.3799V21.9661H1.6V14.3799H0.4ZM0.4 21.9661V39.0483H1.6V21.9661H0.4ZM0.4 39.0483V57.1093H1.6V39.0483H0.4ZM0.4 57.1093V67.6338H1.6V57.1093H0.4ZM0.4 67.6338V68.0929H1.6V67.6338H0.4ZM0.4 68.0929C0.4 68.9692 1.12372 69.693 1.99999 69.693V68.493C1.78648 68.493 1.6 68.3065 1.6 68.0929H0.4ZM1.99999 69.693H7.40678V68.493H1.99999V69.693ZM7.40678 69.693H21.0679V68.493H7.40678V69.693ZM21.0679 69.693H39.1445V68.493H21.0679V69.693ZM39.1445 69.693H57.7975V68.493H39.1445V69.693ZM57.7975 69.693H73.1865V68.493H57.7975V69.693ZM73.1865 69.693H81.4728V68.493H73.1865V69.693ZM81.4728 69.693H82V68.493H81.4728V69.693ZM82 69.693C82.8763 69.693 83.6 68.9692 83.6 68.0929H82.4C82.4 68.3065 82.2135 68.493 82 68.493V69.693ZM83.6 68.0929V60.5067H82.4V68.0929H83.6ZM83.6 60.5067V43.4245H82.4V60.5067H83.6ZM83.6 43.4245V25.3635H82.4V43.4245H83.6ZM83.6 25.3635V14.8391H82.4V25.3635H83.6ZM83.6 14.8391V14.3799H82.4V14.8391H83.6ZM83.6 14.3799C83.6 13.8876 83.4024 13.478 83.0786 13.1997C82.7673 12.9322 82.3725 12.8131 82 12.8131C81.6276 12.8131 81.2327 12.9322 80.9215 13.1997C80.5977 13.478 80.4001 13.8876 80.4001 14.3799H81.6001C81.6001 14.2276 81.6524 14.1538 81.7036 14.1098C81.7674 14.055 81.8725 14.0131 82 14.0131C82.1275 14.0131 82.2327 14.055 82.2964 14.1098C82.3476 14.1538 82.4 14.2276 82.4 14.3799H83.6ZM81.441 13.9729L81.4409 13.9728L80.5591 14.7868L80.5592 14.7868L81.441 13.9729Z" fill="#EA142E" mask="url(#path-1-outside-1_149_78)"/>
<path d="M30.062 9.04761V3.29999H41.1912H53.938V9.04761C53.938 9.455 54.0993 9.78077 54.3549 10.0006C54.6043 10.215 54.9267 10.3149 55.238 10.3149C55.5493 10.3149 55.8717 10.215 56.1211 10.0006C56.3767 9.78077 56.538 9.455 56.538 9.04761V1.99999C56.538 1.28942 55.9486 0.7 55.238 0.7H42.8088H28.8905H28.762C28.0514 0.7 27.462 1.28941 27.462 1.99999V9.04761C27.462 9.455 27.6232 9.78078 27.8789 10.0006C28.1282 10.215 28.4506 10.3149 28.7619 10.3149C29.0732 10.3149 29.3956 10.215 29.645 10.0006C29.8343 9.83776 29.9719 9.61681 30.0305 9.34761H30.062V9.04761Z" fill="#D71635" stroke="#EA142E" stroke-width="0.6"/>
<path d="M80.7 15.6798V27.3655H76.5932H62.9321H44.8555H26.2025H10.8135H3.29999V15.6798H7.40678H21.0679H39.1445H57.7975H73.1865H80.7ZM83.3 14.3799C83.3 13.994 83.1552 13.6815 82.9226 13.4628C82.7037 13.227 82.389 13.0799 82 13.0799H76.5932H62.9321H44.8555H26.2025H10.8135H2.52719H1.99999C1.28942 13.0799 0.7 13.6693 0.7 14.3799V28.1757V28.6655C0.7 29.3761 1.28942 29.9655 1.99999 29.9655H7.40678H21.0679H39.1445H57.7975H73.1865H81.4728H82C82.7106 29.9655 83.3 29.3761 83.3 28.6655V14.8697V14.3799Z" fill="#D71635" stroke="#EA142E" stroke-width="0.6"/>
<path d="M48.7004 29.965V37.2697H35.763H35.3005V29.965H48.2378H48.7004ZM51.3004 28.665C51.3004 28.2792 51.1556 27.9666 50.923 27.748C50.7041 27.5121 50.3894 27.365 50.0004 27.365H35.763H34.0005C33.2899 27.365 32.7005 27.9545 32.7005 28.665V38.5697C32.7005 39.2803 33.2899 39.8697 34.0005 39.8697H48.2378H50.0004C50.711 39.8697 51.3004 39.2803 51.3004 38.5697V28.665Z" fill="#D71635" stroke="#EA142E" stroke-width="0.6"/>
</svg>
