<svg width="82" height="83" viewBox="0 0 82 83" fill="none" xmlns="http://www.w3.org/2000/svg">
<g clip-path="url(#clip0_702_357)">
<path d="M81.1063 38.1233L81.1044 38.1129C81.1033 38.1071 81.103 38.1052 81.1025 38.1016C81.102 38.0975 81.1012 38.0911 81.0983 38.0737C81.0948 38.0519 81.0882 38.0161 81.0739 37.9762C81.0446 37.8948 81.0009 37.8287 80.9772 37.7923C80.9765 37.7913 80.9759 37.7903 80.9753 37.7893L80.9695 37.7794C80.966 37.7734 80.9603 37.7637 80.9542 37.7537C80.9417 37.7336 80.9224 37.7039 80.8948 37.6732M81.1063 38.1233L80.8948 37.6732C80.8949 37.6735 80.8945 37.6731 80.8948 37.6732M81.1063 38.1233L81.1066 38.1245L81.1076 38.1285C81.1095 38.1357 81.1126 38.1471 81.1148 38.1561C81.1202 38.1777 81.1276 38.2105 81.1306 38.2503L81.2158 38.6961L81.1321 38.6536L81.1063 38.1233ZM80.8948 37.6732C80.8422 37.6144 80.779 37.5704 80.7472 37.5482C80.7464 37.5477 80.7458 37.5472 80.7451 37.5467M80.8948 37.6732L80.7451 37.5467ZM80.7451 37.5467L80.7361 37.5383C80.7222 37.5253 80.6883 37.4937 80.639 37.4678L44.2423 18.5369C44.9872 17.7059 45.4447 16.6008 45.4447 15.3866C45.4447 13.1342 43.8779 11.2405 41.7903 10.8086V9.23422H47.5679C48.0755 9.23422 48.4722 8.81477 48.4722 8.31456V1.86741C48.4722 1.3672 48.0755 0.947754 47.5679 0.947754H34.204C33.6963 0.947754 33.2995 1.3672 33.2995 1.86741V8.31456C33.2995 8.81477 33.6963 9.23422 34.204 9.23422H39.9815V11.6361C39.9815 12.1363 40.3782 12.5558 40.8859 12.5558C42.394 12.5558 43.6357 13.8179 43.6357 15.3866C43.6357 16.3116 43.2009 17.1315 42.5337 17.6477L41.4509 17.0843C41.192 16.9505 40.8865 16.9501 40.6277 17.0839L39.3761 17.7353C38.6324 17.2281 38.1365 16.3698 38.1365 15.3865C38.1365 14.8863 37.7398 14.4668 37.2321 14.4668C36.7245 14.4668 36.3277 14.8863 36.3277 15.3865C36.3277 16.6532 36.8244 17.8028 37.6275 18.6449L1.43824 37.4668C1.38899 37.4927 1.35395 37.5249 1.3401 37.5379L1.33113 37.5464C1.33046 37.5469 1.32979 37.5474 1.32909 37.5477C1.29712 37.57 1.23356 37.6144 1.18088 37.6735L1.17943 37.6752C1.15229 37.7061 1.13331 37.736 1.12216 37.7542C1.11438 37.7669 1.11085 37.7729 1.10857 37.7768C1.1063 37.7806 1.10529 37.7824 1.10259 37.7865L1.10094 37.7889L1.0966 37.7956C1.07243 37.8327 1.03061 37.8967 1.00233 37.9755C0.988037 38.0155 0.981448 38.0517 0.977905 38.0736C0.97505 38.0912 0.974204 38.0976 0.973649 38.1019C0.973159 38.1056 0.972896 38.1076 0.97168 38.1141L1.25876 38.1675C1.25615 38.1809 1.25267 38.194 1.24919 38.207C1.2423 38.2328 1.23544 38.2584 1.23544 38.2866V81.1661C1.23544 81.5135 1.50933 81.7945 1.84778 81.7945H80.2276C80.5662 81.7945 80.84 81.5135 80.84 81.1661L80.7451 37.5467ZM39.3911 19.7932C39.7314 19.9156 40.0898 19.9994 40.4622 20.036L40.4536 20.0574H40.8864C41.4776 20.0574 42.0428 19.9401 42.5618 19.729L76.4749 37.3679H5.60292L39.3911 19.7932ZM35.1088 2.78744H46.664V7.39531H40.9297C40.917 7.39352 40.9025 7.39224 40.8864 7.39224C40.8702 7.39224 40.8557 7.39352 40.843 7.39531H35.1087L35.1088 2.78744ZM79.325 80.2481H2.75384V39.208H79.325V80.2481Z" fill="#EA142E"/>
<path d="M81.1063 38.1233L81.1044 38.1129C81.1033 38.1071 81.103 38.1052 81.1025 38.1016C81.102 38.0975 81.1012 38.0911 81.0983 38.0737C81.0948 38.0519 81.0882 38.0161 81.0739 37.9762C81.0446 37.8948 81.0009 37.8287 80.9772 37.7923C80.9765 37.7913 80.9759 37.7903 80.9753 37.7893L80.9695 37.7794C80.966 37.7734 80.9603 37.7637 80.9542 37.7537C80.9417 37.7336 80.9224 37.7039 80.8948 37.6732M81.1063 38.1233L80.8948 37.6732M81.1063 38.1233L81.1066 38.1245L81.1076 38.1285C81.1095 38.1357 81.1126 38.1471 81.1148 38.1561C81.1202 38.1777 81.1276 38.2105 81.1306 38.2503L81.2158 38.6961L81.1321 38.6536L81.1063 38.1233ZM80.8948 37.6732C80.8945 37.6731 80.8949 37.6735 80.8948 37.6732ZM80.8948 37.6732C80.8422 37.6144 80.779 37.5704 80.7472 37.5482C80.7464 37.5477 80.7458 37.5472 80.7451 37.5467M80.8948 37.6732L80.7451 37.5467M80.7451 37.5467L80.7361 37.5383C80.7222 37.5253 80.6883 37.4937 80.639 37.4678L44.2423 18.5369C44.9872 17.7059 45.4447 16.6008 45.4447 15.3866C45.4447 13.1342 43.8779 11.2405 41.7903 10.8086V9.23422H47.5679C48.0755 9.23422 48.4722 8.81477 48.4722 8.31456V1.86741C48.4722 1.3672 48.0755 0.947754 47.5679 0.947754H34.204C33.6963 0.947754 33.2995 1.3672 33.2995 1.86741V8.31456C33.2995 8.81477 33.6963 9.23422 34.204 9.23422H39.9815V11.6361C39.9815 12.1363 40.3782 12.5558 40.8859 12.5558C42.394 12.5558 43.6357 13.8179 43.6357 15.3866C43.6357 16.3116 43.2009 17.1315 42.5337 17.6477L41.4509 17.0843C41.192 16.9505 40.8865 16.9501 40.6277 17.0839L39.3761 17.7353C38.6324 17.2281 38.1365 16.3698 38.1365 15.3865C38.1365 14.8863 37.7398 14.4668 37.2321 14.4668C36.7245 14.4668 36.3277 14.8863 36.3277 15.3865C36.3277 16.6532 36.8244 17.8028 37.6275 18.6449L1.43824 37.4668C1.38899 37.4927 1.35395 37.5249 1.3401 37.5379L1.33113 37.5464C1.33046 37.5469 1.32979 37.5474 1.32909 37.5477C1.29712 37.57 1.23356 37.6144 1.18088 37.6735L1.17943 37.6752C1.15229 37.7061 1.13331 37.736 1.12216 37.7542C1.11438 37.7669 1.11085 37.7729 1.10857 37.7768C1.1063 37.7806 1.10529 37.7824 1.10259 37.7865L1.10094 37.7889L1.0966 37.7956C1.07243 37.8327 1.03061 37.8967 1.00233 37.9755C0.988037 38.0155 0.981448 38.0517 0.977905 38.0736C0.97505 38.0912 0.974204 38.0976 0.973649 38.1019C0.973159 38.1056 0.972896 38.1076 0.97168 38.1141L1.25876 38.1675C1.25615 38.1809 1.25267 38.194 1.24919 38.207C1.2423 38.2328 1.23544 38.2584 1.23544 38.2866V81.1661C1.23544 81.5135 1.50933 81.7945 1.84778 81.7945H80.2276C80.5662 81.7945 80.84 81.5135 80.84 81.1661L80.7451 37.5467ZM39.3911 19.7932C39.7314 19.9156 40.0898 19.9994 40.4622 20.036L40.4536 20.0574H40.8864C41.4776 20.0574 42.0428 19.9401 42.5618 19.729L76.4749 37.3679H5.60292L39.3911 19.7932ZM35.1088 2.78744H46.664V7.39531H40.9297C40.917 7.39352 40.9025 7.39224 40.8864 7.39224C40.8702 7.39224 40.8557 7.39352 40.843 7.39531H35.1087L35.1088 2.78744ZM79.325 80.2481H2.75384V39.208H79.325V80.2481Z" stroke="#EA142E" stroke-width="0.470122"/>
<path d="M70.0562 75.0811C70.5134 75.0811 70.9171 74.731 70.9171 74.2589V44.9667C70.9171 44.4946 70.5134 44.1445 70.0562 44.1445C69.599 44.1445 69.1953 44.4946 69.1953 44.9667V74.2589C69.1953 74.731 69.599 75.0811 70.0562 75.0811Z" fill="#EA142E" stroke="#EA142E" stroke-width="0.470122"/>
<path d="M58.9624 75.2424C59.4197 75.2424 59.8232 74.8923 59.8232 74.4202V45.1279C59.8232 44.6559 59.4197 44.3057 58.9624 44.3057C58.5051 44.3057 58.1016 44.6559 58.1016 45.1279V74.4202C58.1016 74.8923 58.5051 75.2424 58.9624 75.2424Z" fill="#EA142E" stroke="#EA142E" stroke-width="0.470122"/>
<path d="M47.3052 75.0811C47.7624 75.0811 48.166 74.731 48.166 74.2589V44.9667C48.166 44.4946 47.7624 44.1445 47.3052 44.1445C46.8479 44.1445 46.4443 44.4946 46.4443 44.9667V74.2589C46.4443 74.731 46.8479 75.0811 47.3052 75.0811Z" fill="#EA142E" stroke="#EA142E" stroke-width="0.470122"/>
<path d="M34.7925 75.0811C35.2497 75.0811 35.6533 74.731 35.6533 74.2589V44.9667C35.6533 44.4946 35.2497 44.1445 34.7925 44.1445C34.3352 44.1445 33.9316 44.4946 33.9316 44.9667V74.2589C33.9316 74.731 34.3352 75.0811 34.7925 75.0811Z" fill="#EA142E" stroke="#EA142E" stroke-width="0.470122"/>
<path d="M23.4174 75.0811C23.8747 75.0811 24.2783 74.731 24.2783 74.2589V44.9667C24.2783 44.4946 23.8747 44.1445 23.4174 44.1445C22.9602 44.1445 22.5566 44.4946 22.5566 44.9667V74.2589C22.5566 74.731 22.9602 75.0811 23.4174 75.0811Z" fill="#EA142E" stroke="#EA142E" stroke-width="0.470122"/>
<path d="M12.0415 75.0811C12.4987 75.0811 12.9023 74.731 12.9023 74.2589V44.9667C12.9023 44.4946 12.4987 44.1445 12.0415 44.1445C11.5842 44.1445 11.1807 44.4946 11.1807 44.9667V74.2589C11.1807 74.731 11.5842 75.0811 12.0415 75.0811Z" fill="#EA142E" stroke="#EA142E" stroke-width="0.470122"/>
</g>
<defs>
<clipPath id="clip0_702_357">
<rect width="82" height="83" fill="white"/>
</clipPath>
</defs>
</svg>
