<svg width="82" height="82" viewBox="0 0 82 82" fill="none" xmlns="http://www.w3.org/2000/svg">
<path d="M59.0641 23.3488L57.3922 25.0206L55.7208 26.692L51.6843 30.7285L47.6479 34.7649L42.78 39.6328L37.9122 44.5006L33.7067 48.706L29.5014 52.9114C29.0541 53.3587 28.5972 53.8048 28.1382 54.2531C27.2136 55.1559 26.2804 56.0672 25.3989 57.0139L25.376 57.0368L25.3493 57.0634C25.0868 57.326 24.98 57.6416 25.0031 57.9502C25.0255 58.2506 25.1689 58.5235 25.3689 58.7243C25.569 58.925 25.8415 59.0694 26.1422 59.0914C26.4512 59.1139 26.7661 59.005 27.0278 58.7407C27.0276 58.7408 27.028 58.7405 27.0278 58.7407L56.5903 29.1783C57.0377 28.7309 57.4945 28.2848 57.9536 27.8366C58.8781 26.9337 59.8114 26.0224 60.6929 25.0757L60.7401 25.0285C60.7405 25.0281 60.7409 25.0277 60.7413 25.0273C61.0059 24.7678 61.1154 24.4541 61.0938 24.1458C61.0728 23.8455 60.9295 23.5727 60.7295 23.372C60.5294 23.1712 60.2568 23.0267 59.9559 23.0033C59.6469 22.9793 59.3304 23.0853 59.0657 23.3471L59.0649 23.348L59.0641 23.3488Z" fill="#EA142E"/>
<path d="M27.0278 58.7407C26.7661 59.005 26.4512 59.1139 26.1422 59.0914C25.8415 59.0694 25.569 58.925 25.3689 58.7243C25.1689 58.5235 25.0255 58.2506 25.0031 57.9502C24.98 57.6416 25.0868 57.326 25.3493 57.0634L25.376 57.0368L25.3989 57.0139C26.2804 56.0672 27.2136 55.1559 28.1382 54.2531C28.5972 53.8048 29.0541 53.3587 29.5014 52.9114L33.7067 48.706L37.9122 44.5006L42.78 39.6328L47.6479 34.7649L51.6843 30.7285L55.7208 26.692L57.3922 25.0206L59.0641 23.3488L59.0649 23.348L59.0657 23.3471C59.3304 23.0853 59.6469 22.9793 59.9559 23.0033C60.2568 23.0267 60.5294 23.1712 60.7295 23.372C60.9295 23.5727 61.0728 23.8455 61.0938 24.1458C61.1154 24.4541 61.0059 24.7678 60.7413 25.0273C60.7409 25.0277 60.7405 25.0281 60.7401 25.0285L60.6929 25.0757C59.8114 26.0224 58.8781 26.9337 57.9536 27.8366C57.4945 28.2848 57.0377 28.7309 56.5903 29.1783L27.0278 58.7407ZM27.0278 58.7407C27.028 58.7405 27.0276 58.7408 27.0278 58.7407Z" stroke="#EA142E" stroke-width="0.6"/>
<path d="M82 41C82 63.6437 63.6437 82 41 82C18.3563 82 0 63.6437 0 41C0 18.3563 18.3563 0 41 0C63.6437 0 82 18.3563 82 41ZM3.28946 41C3.28946 61.827 20.173 78.7105 41 78.7105C61.827 78.7105 78.7105 61.827 78.7105 41C78.7105 20.173 61.827 3.28946 41 3.28946C20.173 3.28946 3.28946 20.173 3.28946 41Z" fill="#EA142E"/>
<path d="M36 27.5C36 31.6421 32.6421 35 28.5 35C24.3579 35 21 31.6421 21 27.5C21 23.3579 24.3579 20 28.5 20C32.6421 20 36 23.3579 36 27.5ZM23.8188 27.5C23.8188 30.0854 25.9146 32.1812 28.5 32.1812C31.0854 32.1812 33.1812 30.0854 33.1812 27.5C33.1812 24.9146 31.0854 22.8188 28.5 22.8188C25.9146 22.8188 23.8188 24.9146 23.8188 27.5Z" fill="#EA142E"/>
<path d="M63 54.5C63 58.6421 59.6421 62 55.5 62C51.3579 62 48 58.6421 48 54.5C48 50.3579 51.3579 47 55.5 47C59.6421 47 63 50.3579 63 54.5ZM50.6677 54.5C50.6677 57.1688 52.8312 59.3323 55.5 59.3323C58.1688 59.3323 60.3323 57.1688 60.3323 54.5C60.3323 51.8312 58.1688 49.6677 55.5 49.6677C52.8312 49.6677 50.6677 51.8312 50.6677 54.5Z" fill="#EA142E"/>
</svg>
