<svg width="84" height="84" viewBox="0 0 84 84" fill="none" xmlns="http://www.w3.org/2000/svg">
<path d="M58.0879 24.3712L58.0877 24.3714L54.7448 27.7143L46.6719 35.7872L36.9362 45.5229L28.5254 53.9337C28.0781 54.381 27.6212 54.8271 27.1622 55.2754C26.2377 56.1782 25.3044 57.0895 24.4229 58.0362L24.3734 58.0857C24.1108 58.3483 24.004 58.6639 24.0271 58.9725C24.0495 59.2729 24.1929 59.5458 24.393 59.7466C24.593 59.9473 24.8655 60.0917 25.1663 60.1137C25.4752 60.1362 25.7901 60.0273 26.0519 59.763C26.052 59.7628 26.0522 59.7626 26.0524 59.7625L55.6143 30.2005C56.0617 29.7532 56.5186 29.307 56.9776 28.8588C57.9021 27.956 58.8354 27.0447 59.7169 26.098L59.7641 26.0508C59.7645 26.0503 59.765 26.0499 59.7654 26.0494C60.0299 25.79 60.1394 25.4763 60.1178 25.1681C60.0968 24.8678 59.9535 24.5949 59.7535 24.3942C59.5534 24.1935 59.2808 24.049 58.9799 24.0256C58.6709 24.0016 58.3544 24.1076 58.0897 24.3694L58.0887 24.3704L58.0879 24.3712Z" fill="#EA142E" stroke="#EA142E" stroke-width="0.6"/>
<path d="M34.8543 34.9125C32.2128 37.4771 27.9969 37.9679 24.9072 35.8742L24.9072 35.8742C22.1551 34.0087 20.815 30.5918 21.619 27.3475C22.4247 24.0789 25.291 21.7361 28.5929 21.4041L28.5931 21.4041C31.8328 21.0801 35.1017 22.964 36.453 25.9254C37.8277 28.9227 37.2287 32.4477 34.9447 34.8212C34.9263 34.8413 34.9072 34.861 34.8871 34.8805C34.8868 34.8808 34.8865 34.881 34.8863 34.8813L34.8543 34.9125ZM34.8543 34.9125C34.8644 34.9029 34.8744 34.8932 34.8843 34.8832L34.8543 34.9125ZM26.9737 34.3146C24.8298 33.2933 23.5716 31.0656 23.7826 28.7C23.9928 26.4065 25.7542 24.4541 27.9747 23.9053C30.1925 23.3571 32.6231 24.2788 33.8852 26.1804C35.3437 28.3896 35.0584 31.3146 33.2152 33.1964L33.2141 33.1975C31.5816 34.7961 29.0571 35.3058 26.9737 34.3146Z" fill="#EA142E" stroke="#EA142E" stroke-width="0.6"/>
<path d="M47.1892 52.9017C46.3852 56.146 47.7253 59.5629 50.4774 61.4284L50.4774 61.4284C53.567 63.522 57.7827 63.0313 60.4243 60.4669C60.4345 60.4572 60.4447 60.4473 60.4548 60.4371L47.1892 52.9017ZM47.1892 52.9017C47.9949 49.6331 50.8612 47.2903 54.1631 46.9583L54.1633 46.9583C57.403 46.6343 60.6719 48.5182 62.0232 51.4796C63.396 54.4727 62.8005 57.992 60.5245 60.3654C60.5031 60.3891 60.4806 60.4124 60.4568 60.4352L47.1892 52.9017ZM52.5439 59.8688C50.4 58.8475 49.1418 56.6198 49.3528 54.2542C49.563 51.9607 51.3244 50.0083 53.5449 49.4595C55.7628 48.9113 58.1934 49.8331 59.4555 51.7347L59.4556 51.7348C60.9222 53.9431 60.6293 56.8682 58.7853 58.7506L58.7843 58.7517C57.1518 60.3503 54.6273 60.86 52.5439 59.8688ZM50.6457 61.1801C53.384 63.0356 57.0542 62.7794 59.6041 60.7846L47.4805 52.9737C46.707 56.0943 47.9962 59.3841 50.6457 61.1801Z" fill="#EA142E" stroke="#EA142E" stroke-width="0.6"/>
<path d="M82.9593 48.4652C82.3232 52.667 81.0064 56.7513 79.108 60.557C77.2627 64.2563 74.8446 67.6772 71.9881 70.6681C69.1401 73.6506 65.8265 76.2117 62.2266 78.2266L62.2258 78.2271C58.5364 80.2778 54.5244 81.7734 50.386 82.6154L50.3857 82.6155C46.0968 83.484 41.6816 83.6901 37.337 83.1795C33.0656 82.678 28.9194 81.5317 24.9973 79.7677L24.9966 79.7674C21.1988 78.0476 17.6792 75.7458 14.5718 72.9788C11.4819 70.2382 8.81338 67.0233 6.67331 63.4953C4.49655 59.9212 2.87551 55.9893 1.88142 51.9234L1.8814 51.9234C0.8425 47.6692 0.484288 43.2363 0.82461 38.8747C1.156 34.6215 2.13199 30.4121 3.75355 26.4612C5.34745 22.5749 7.50563 18.9661 10.165 15.7246L10.1657 15.7238C12.8078 12.5264 15.9332 9.73246 19.3988 7.45777C22.8829 5.16495 26.7339 3.40056 30.7556 2.26303C34.9291 1.08081 39.3082 0.561398 43.6429 0.731534C47.9503 0.892691 52.24 1.72549 56.2888 3.2124C60.1934 4.64526 63.8743 6.6602 67.1795 9.19511L67.1796 9.19518C70.4926 11.7381 73.394 14.7381 75.8208 18.141C78.2571 21.5537 80.1559 25.3422 81.4455 29.3275C82.7803 33.4305 83.4428 37.756 83.4517 42.0713V42.0719C83.4517 42.0751 83.4517 42.0783 83.4517 42.0814C83.4517 42.0842 83.4517 42.087 83.4517 42.0898C83.4517 44.2218 83.2815 46.3529 82.9593 48.4652ZM82.9593 48.4652C82.9593 48.4653 82.9593 48.4654 82.9593 48.4655L82.6627 48.4203L82.9593 48.4652ZM81.0733 41.9418L81.073 42.0713C81.0642 46.1751 80.4287 50.2517 79.1671 54.1604C77.9499 57.909 76.1502 61.4471 73.8734 64.6593C71.6323 67.8178 68.897 70.6592 65.8356 73.0148C62.7119 75.4149 59.2091 77.3558 55.5132 78.7053L55.5131 78.7054C51.7014 80.0995 47.687 80.8934 43.6379 81.0434L43.6374 81.0434C39.5161 81.2023 35.3867 80.7257 31.4171 79.5965L31.4167 79.5964C27.6149 78.5202 23.9973 76.8528 20.6969 74.6908C17.4244 72.5473 14.486 69.8915 11.9882 66.8731L11.9881 66.8729C9.50904 63.8822 7.46218 60.4767 5.998 56.8778C4.48011 53.1448 3.5274 49.1831 3.21851 45.1607L3.21851 45.1607C2.90077 41.0302 3.21859 36.8656 4.19775 32.8429C5.1418 28.9697 6.67698 25.2639 8.74166 21.8582L8.74171 21.8581C10.7619 18.5233 13.2853 15.5058 16.2062 12.9115L16.2062 12.9114C19.1442 10.2998 22.4796 8.13808 26.062 6.51459L26.0624 6.5144C29.6881 4.86473 33.6051 3.77968 37.557 3.32981L37.5571 3.3298C41.6613 2.86202 45.8348 3.02105 49.8746 3.85018L49.8753 3.85033C53.7927 4.6444 57.5689 6.03832 61.0625 7.98806L61.0626 7.98809C64.4946 9.90263 67.6094 12.3204 70.3274 15.1618C73.027 17.9939 75.2857 21.2143 77.0418 24.7173C78.8321 28.3068 80.0496 32.1792 80.6676 36.1405C80.9266 38.0579 81.0672 39.9998 81.0733 41.9418Z" fill="#EA142E" stroke="#EA142E" stroke-width="0.6"/>
</svg>
