<svg width="84" height="85" viewBox="0 0 84 85" fill="none" xmlns="http://www.w3.org/2000/svg">
<path d="M83.0463 38.9996L83.0443 38.9889C83.0419 38.976 83.0435 38.9821 83.0381 38.9485C83.0345 38.9262 83.0278 38.8892 83.0131 38.848L83.0131 38.8478C82.983 38.7639 82.9381 38.6961 82.9137 38.6586L82.9058 38.6453L82.9043 38.6427C82.9006 38.6366 82.8955 38.6278 82.89 38.619C82.8772 38.5981 82.8574 38.5676 82.829 38.536M83.0463 38.9996L82.8296 38.5367C82.8294 38.5364 82.8292 38.5362 82.829 38.536M83.0463 38.9996L83.0466 39.001L83.0476 39.0048C83.0496 39.0121 83.0527 39.0241 83.0551 39.0335C83.0605 39.0557 83.0682 39.0895 83.0713 39.1306L83.1589 39.5901L83.0728 39.5462V83.3439C83.0728 83.8593 82.6652 84.2914 82.1438 84.2914H1.62902C1.10755 84.2914 0.7 83.8593 0.7 83.3439V39.1679C0.7 39.1099 0.710716 39.0619 0.717847 39.0332C0.720116 39.0241 0.723316 39.0121 0.72524 39.0048L0.726609 38.9997C0.728364 38.993 0.729067 38.9899 0.729347 38.9886L83.0463 38.9996ZM82.829 38.536C82.775 38.4754 82.7101 38.43 82.6774 38.4072C82.6767 38.4067 82.676 38.4062 82.6753 38.4057M82.829 38.536L82.6753 38.4057M82.6753 38.4057L82.6661 38.3969C82.6518 38.3836 82.6169 38.351 82.5663 38.3243L82.5653 38.3238L45.1782 18.821C45.9435 17.9648 46.4134 16.8263 46.4134 15.5754C46.4134 13.255 44.8039 11.3039 42.6595 10.859V9.23702H48.5944C49.1159 9.23702 49.5234 8.80489 49.5234 8.28956V1.64746C49.5234 1.13213 49.1159 0.7 48.5944 0.7H34.8665C34.345 0.7 33.9375 1.13213 33.9375 1.64746V8.28956C33.9375 8.80489 34.345 9.23702 34.8665 9.23702H40.8013V11.7115C40.8013 12.2269 41.2089 12.659 41.7304 12.659C43.2796 12.659 44.5552 13.9593 44.5552 15.5754C44.5552 16.5285 44.1084 17.3731 43.4231 17.9049L42.3108 17.3245L42.31 17.3241C42.0441 17.1863 41.7311 17.1863 41.4652 17.3241L41.4644 17.3245L40.1795 17.9951C39.4156 17.4727 38.9061 16.5884 38.9061 15.5753C38.9061 15.06 38.4986 14.6279 37.9771 14.6279C37.4557 14.6279 37.0481 15.06 37.0481 15.5753C37.0481 16.8803 37.5583 18.0647 38.3833 18.9323L1.20832 38.3234L1.20729 38.3239C1.1567 38.3505 1.12175 38.3832 1.10752 38.3965L1.0983 38.4053L1.09829 38.4053C1.0976 38.4058 1.0969 38.4062 1.09618 38.4067C1.06335 38.4297 0.998061 38.4753 0.943959 38.5363L0.943953 38.5362L0.942465 38.5379C0.914592 38.5698 0.895088 38.6007 0.883635 38.6194C0.875648 38.6325 0.872015 38.6387 0.869678 38.6426C0.867351 38.6466 0.86631 38.6484 0.863535 38.6526L0.863522 38.6526L0.861846 38.6551L0.857383 38.662C0.832547 38.7002 0.789595 38.7662 0.760547 38.8474L0.760452 38.8477C0.745767 38.8888 0.739092 38.9258 0.735454 38.9484C0.732522 38.9666 0.731652 38.9732 0.731082 38.9776L82.6753 38.4057ZM40.1949 20.1152C40.5443 20.2413 40.9123 20.3276 41.2945 20.3654L41.2856 20.3875H41.7309C42.3383 20.3875 42.9189 20.2666 43.452 20.0492L78.2888 38.2214H5.48643L40.1949 20.1152ZM35.796 2.59532H47.6659V7.34251H41.7754C41.7625 7.34067 41.7475 7.33935 41.7309 7.33935C41.7143 7.33935 41.6993 7.34067 41.6864 7.34251H35.7959L35.796 2.59532ZM81.2164 82.3982H2.55976V40.1171H81.2164V82.3982Z" fill="#EA142E" stroke="#EA142E" stroke-width="0.6"/>
<path d="M71.6957 77.0746C72.1654 77.0746 72.5799 76.7139 72.5799 76.2275V46.0495C72.5799 45.5631 72.1654 45.2024 71.6957 45.2024C71.2259 45.2024 70.8114 45.5631 70.8114 46.0495V76.2275C70.8114 76.7139 71.2259 77.0746 71.6957 77.0746Z" fill="#EA142E" stroke="#EA142E" stroke-width="0.6"/>
<path d="M60.0105 77.0746C60.4803 77.0746 60.8948 76.7139 60.8948 76.2275V46.0495C60.8948 45.5631 60.4803 45.2024 60.0105 45.2024C59.5408 45.2024 59.1263 45.5631 59.1263 46.0495V76.2275C59.1263 76.7139 59.5408 77.0746 60.0105 77.0746Z" fill="#EA142E" stroke="#EA142E" stroke-width="0.6"/>
<path d="M48.3252 77.0746C48.7949 77.0746 49.2095 76.7139 49.2095 76.2275V46.0495C49.2095 45.5631 48.7949 45.2024 48.3252 45.2024C47.8555 45.2024 47.441 45.5631 47.441 46.0495V76.2275C47.441 76.7139 47.8555 77.0746 48.3252 77.0746Z" fill="#EA142E" stroke="#EA142E" stroke-width="0.6"/>
<path d="M35.4715 77.0746C35.9412 77.0746 36.3557 76.7139 36.3557 76.2275V46.0495C36.3557 45.5631 35.9412 45.2024 35.4715 45.2024C35.0018 45.2024 34.5872 45.5631 34.5872 46.0495V76.2275C34.5872 76.7139 35.0018 77.0746 35.4715 77.0746Z" fill="#EA142E" stroke="#EA142E" stroke-width="0.6"/>
<path d="M23.7862 77.0746C24.2559 77.0746 24.6704 76.7139 24.6704 76.2275V46.0495C24.6704 45.5631 24.2559 45.2024 23.7862 45.2024C23.3164 45.2024 22.9019 45.5631 22.9019 46.0495V76.2275C22.9019 76.7139 23.3164 77.0746 23.7862 77.0746Z" fill="#EA142E" stroke="#EA142E" stroke-width="0.6"/>
<path d="M12.1011 77.0746C12.5708 77.0746 12.9854 76.7139 12.9854 76.2275V46.0495C12.9854 45.5631 12.5708 45.2024 12.1011 45.2024C11.6314 45.2024 11.2168 45.5631 11.2168 46.0495V76.2275C11.2168 76.7139 11.6314 77.0746 12.1011 77.0746Z" fill="#EA142E" stroke="#EA142E" stroke-width="0.6"/>
</svg>
