<svg width="44" height="44" viewBox="0 0 44 44" fill="none" xmlns="http://www.w3.org/2000/svg">
<path d="M13.4037 34.6059L7.75984 39.3503C7.55941 39.5188 7.31504 39.6266 7.05546 39.6609C6.79588 39.6953 6.53188 39.6548 6.29452 39.5443C6.05716 39.4337 5.8563 39.2577 5.71556 39.0369C5.57483 38.8161 5.50006 38.5597 5.50006 38.2978V11C5.50006 10.6353 5.64493 10.2856 5.90279 10.0277C6.16065 9.76987 6.51039 9.625 6.87506 9.625H37.1251C37.4897 9.625 37.8395 9.76987 38.0973 10.0277C38.3552 10.2856 38.5001 10.6353 38.5001 11V33C38.5001 33.3647 38.3552 33.7144 38.0973 33.9723C37.8395 34.2301 37.4897 34.375 37.1251 34.375H14.0373L13.4037 34.6059Z" stroke="#D71635" stroke-linecap="round" stroke-linejoin="round"/>
<path d="M16.5001 19.25H27.5001" stroke="#D71635" stroke-linecap="round" stroke-linejoin="round"/>
<path d="M16.5001 24.75H27.5001" stroke="#D71635" stroke-linecap="round" stroke-linejoin="round"/>
</svg>
