<svg width="43" height="55" viewBox="0 0 43 55" fill="none" xmlns="http://www.w3.org/2000/svg">
<path d="M21.7538 0.000790832C33.3783 0.000790832 42.8357 9.20695 42.8357 20.5228C42.8357 30.6455 37.0231 39.5384 32.1485 45.2185C27.6287 50.4813 23.057 54.0327 21.7538 55C20.4539 54.0331 15.8972 50.496 11.3815 45.2405C6.49601 39.5572 0.676057 30.6566 0.676057 20.523C0.67209 9.20626 10.1294 0 21.7538 0V0.000790832ZM32.3222 20.6128C32.3222 17.8665 31.2218 15.282 29.2276 13.337C27.2335 11.3923 24.5782 10.3246 21.7533 10.3246C18.9285 10.3246 16.2771 11.3958 14.279 13.3404C12.2813 15.2855 11.1845 17.8664 11.1845 20.6127C11.1845 23.359 12.2849 25.9435 14.279 27.8885C16.2732 29.8332 18.9281 30.9009 21.7533 30.9009C24.5781 30.9009 27.2295 29.8297 29.2276 27.8885C31.2253 25.947 32.3222 23.3625 32.3222 20.6127V20.6128Z" fill="#EA142E"/>
</svg>
