<svg width="56" height="49" viewBox="0 0 56 49" fill="none" xmlns="http://www.w3.org/2000/svg">
<path d="M0.65 44.3975C0.65 46.1394 2.02413 47.5673 3.74645 47.6544L3.75074 47.6596H3.91405H32.4695C32.8748 47.6596 33.2711 47.5852 33.6466 47.4387C34.5691 47.5825 35.5138 47.6596 36.4768 47.6596C46.5943 47.6596 54.8257 39.429 54.8257 29.3107C54.8257 19.1932 46.5946 10.9619 36.4768 10.9619C36.1705 10.9619 35.8672 10.9715 35.5667 10.9878C35.6753 10.6629 35.7323 10.3206 35.7323 9.96885V3.91328C35.7323 2.11369 34.2693 0.65 32.47 0.65L3.91329 0.651021C3.91328 0.651021 3.91328 0.651021 3.91327 0.651021C2.11356 0.651028 0.65 2.11459 0.65 3.9143V9.96988C0.65 11.1033 1.23222 12.0968 2.1092 12.68C1.23226 13.2632 0.65 14.2567 0.65 15.3902V21.4457C0.65 22.5792 1.23222 23.5727 2.1092 24.1559C1.23226 24.7391 0.65 25.7326 0.65 26.866V32.9216C0.65 34.0551 1.23222 35.0486 2.1092 35.6318C1.23226 36.215 0.65 37.2084 0.65 38.3419V44.3975ZM3.9151 13.2334H27.6537C23.6152 15.4577 20.4985 19.1561 19.0389 23.6026H3.9147C2.73999 23.6026 1.78061 22.657 1.75848 21.487V21.4456V15.39C1.75848 14.201 2.72642 13.2334 3.9151 13.2334ZM19.0595 35.0776L3.91579 35.0781C2.72728 35.0781 1.75918 34.1101 1.75918 32.9211V32.5653L1.75848 32.5654V26.8655C1.75848 25.6765 2.72642 24.7089 3.9151 24.7089H18.72C18.3374 26.1803 18.1299 27.7215 18.1299 29.3113C18.1299 31.325 18.4571 33.2632 19.0595 35.0776ZM19.4701 36.1848C21.416 40.9822 25.3322 44.7753 30.212 46.554L3.91446 46.5535C2.72585 46.5535 1.75784 45.586 1.75784 44.3969L1.75848 38.3414C1.75848 37.1523 2.72642 36.1848 3.9151 36.1848H19.4701ZM36.4774 12.0694V12.0695C45.9842 12.0695 53.7186 19.8044 53.7186 29.3107C53.7186 38.8171 45.9837 46.552 36.4774 46.552C26.9705 46.552 19.2361 38.8171 19.2361 29.3107C19.2361 20.4141 26.0105 13.0697 34.6712 12.1639C34.6722 12.1639 34.6731 12.1638 34.6741 12.1637C34.6805 12.1632 34.6877 12.1625 34.6958 12.1614C35.2819 12.1011 35.8763 12.0694 36.4774 12.0694ZM3.91418 12.1272C2.7468 12.1272 1.79208 11.1934 1.75848 10.0334V9.97014V3.91457C1.75848 2.72553 2.72642 1.75795 3.9151 1.75795H32.4705C33.659 1.75795 34.6266 2.72539 34.6266 3.91457V9.97014C34.6266 10.371 34.5145 10.7539 34.3027 11.0941C32.826 11.2693 31.4029 11.6212 30.0544 12.1272H3.91418Z" fill="#D71635" stroke="#D71635" stroke-width="0.7"/>
<path d="M25.1368 33.8469C25.0486 33.8469 24.9737 33.8161 24.9119 33.7543C24.8502 33.6926 24.8193 33.6176 24.8193 33.5294V24.9158C24.8193 24.8188 24.8502 24.7394 24.9119 24.6776C24.9737 24.6159 25.0486 24.585 25.1368 24.585H28.9739C29.6884 24.585 30.2706 24.6953 30.7205 24.9158C31.1703 25.1275 31.5011 25.423 31.7128 25.8023C31.9333 26.1816 32.0436 26.6226 32.0436 27.1254C32.0436 27.4606 31.9818 27.7561 31.8584 28.0119C31.7437 28.2589 31.5981 28.4618 31.4217 28.6206C31.2541 28.7793 31.0865 28.9028 30.9189 28.991C31.2629 29.1498 31.5673 29.4144 31.8319 29.7849C32.0965 30.1554 32.2288 30.5964 32.2288 31.108C32.2288 31.6373 32.1097 32.1092 31.8716 32.5238C31.6334 32.9384 31.2806 33.2647 30.8131 33.5029C30.3456 33.7323 29.7678 33.8469 29.0798 33.8469H25.1368ZM26.6584 32.4444H28.8681C29.3444 32.4444 29.7061 32.3165 29.953 32.0607C30.2 31.7961 30.3235 31.4785 30.3235 31.108C30.3235 30.7199 30.1956 30.398 29.9398 30.1422C29.6928 29.8864 29.3356 29.7585 28.8681 29.7585H26.6584V32.4444ZM26.6584 28.3824H28.7358C29.2033 28.3824 29.5517 28.2721 29.781 28.0516C30.0192 27.8223 30.1383 27.5268 30.1383 27.1651C30.1383 26.7946 30.0192 26.508 29.781 26.3051C29.5517 26.0934 29.2033 25.9875 28.7358 25.9875H26.6584V28.3824ZM36.3578 33.8469C36.2696 33.8469 36.1946 33.8161 36.1329 33.7543C36.0711 33.6926 36.0403 33.6176 36.0403 33.5294V30.5391L32.9177 25.0084C32.9089 24.9908 32.9 24.9687 32.8912 24.9423C32.8824 24.9158 32.878 24.8893 32.878 24.8629C32.878 24.7835 32.9045 24.7173 32.9574 24.6644C33.0103 24.6115 33.072 24.585 33.1426 24.585H34.3202C34.4261 24.585 34.5098 24.6115 34.5716 24.6644C34.6422 24.7173 34.6907 24.7747 34.7171 24.8364L36.9665 28.6867L39.2026 24.8364C39.2378 24.7747 39.2864 24.7173 39.3481 24.6644C39.4187 24.6115 39.5069 24.585 39.6127 24.585H40.7771C40.8565 24.585 40.9226 24.6115 40.9755 24.6644C41.0285 24.7173 41.0549 24.7835 41.0549 24.8629C41.0549 24.8893 41.0505 24.9158 41.0417 24.9423C41.0417 24.9687 41.0329 24.9908 41.0152 25.0084L37.8927 30.5391V33.5294C37.8927 33.6176 37.8618 33.6926 37.8 33.7543C37.7383 33.8161 37.6589 33.8469 37.5619 33.8469H36.3578ZM42.7097 33.8469C42.6215 33.8469 42.5465 33.8161 42.4847 33.7543C42.423 33.6926 42.3921 33.6176 42.3921 33.5294V24.9158C42.3921 24.8188 42.423 24.7394 42.4847 24.6776C42.5465 24.6159 42.6215 24.585 42.7097 24.585H43.7285C43.852 24.585 43.9402 24.6159 43.9931 24.6776C44.0549 24.7306 44.0946 24.7702 44.1122 24.7967L47.9228 30.7243V24.9158C47.9228 24.8188 47.9493 24.7394 48.0022 24.6776C48.0639 24.6159 48.1433 24.585 48.2404 24.585H49.3518C49.4488 24.585 49.5282 24.6159 49.59 24.6776C49.6517 24.7394 49.6826 24.8188 49.6826 24.9158V33.5161C49.6826 33.6132 49.6517 33.6926 49.59 33.7543C49.5282 33.8161 49.4532 33.8469 49.365 33.8469H48.333C48.2095 33.8469 48.1213 33.8161 48.0684 33.7543C48.0154 33.6926 47.9757 33.6529 47.9493 33.6352L44.1519 27.8399V33.5294C44.1519 33.6176 44.121 33.6926 44.0593 33.7543C43.9975 33.8161 43.9181 33.8469 43.8211 33.8469H42.7097Z" fill="#D71635"/>
</svg>
