<svg width="36" height="45" viewBox="0 0 36 45" fill="none" xmlns="http://www.w3.org/2000/svg">
<path d="M35.7205 43.5397L35.7205 11.5332C35.7205 11.3535 35.6491 11.1809 35.5219 11.0537L35.4232 11.1523L35.5219 11.0537L25.5263 1.05909L25.5263 1.05908L25.4276 1.15776C25.3266 1.05671 25.1899 1 25.0472 1H1.53863C1.24114 1 1 1.24114 1 1.53863V43.5401C1 43.8376 1.24114 44.0788 1.53863 44.0788H35.0427C35.3389 44.0784 35.5795 43.8386 35.581 43.5424L35.7205 43.5397ZM25.1898 2.63956L33.4228 10.8725H25.1898V2.63956ZM2.21729 42.8621V2.21664H23.8342V11.5508C23.8342 11.9254 24.1378 12.229 24.5123 12.229L34.3655 12.2286V42.8622L2.21729 42.8621Z" fill="#D71635" stroke="#D71635" stroke-width="0.27907"/>
<path d="M27.3405 16.9802H9.24176C8.8672 16.9802 8.56359 17.2838 8.56359 17.6584C8.56359 18.0329 8.8672 18.3366 9.24176 18.3366H27.3405C27.715 18.3366 28.0186 18.0329 28.0186 17.6584C28.0186 17.2838 27.715 16.9802 27.3405 16.9802Z" fill="#D71635" stroke="#D71635" stroke-width="0.27907"/>
<path d="M9.24271 23.2895H9.24251H9.24176C8.86759 23.2895 8.56453 23.5923 8.56359 23.9666L8.56359 23.9668C8.56312 24.3415 8.86635 24.6449 9.24066 24.6459L9.24081 24.6459L27.3395 24.6714H27.3397H27.3405C27.7146 24.6714 28.0177 24.3686 28.0186 23.9944V23.9942C28.0191 23.6195 27.7159 23.316 27.3416 23.3151L27.3412 23.4546L27.3414 23.3151L9.24271 23.2895ZM9.24251 23.4291H9.24176C8.94465 23.4291 8.70388 23.6695 8.70312 23.967C8.70275 24.2645 8.94352 24.5056 9.24101 24.5063L27.3397 24.5319H27.3405C27.6376 24.5319 27.8784 24.2915 27.8791 23.994L9.24251 23.4291Z" fill="#D71635" stroke="#D71635" stroke-width="0.27907"/>
<path d="M8.89821 29.6254V29.6254H8.89766H8.89739C8.81426 29.6254 8.7534 29.6724 8.71576 29.7165C8.67768 29.7611 8.64969 29.8174 8.62894 29.8749C8.58701 29.991 8.56374 30.1422 8.56359 30.3027L8.56359 30.3027C8.56352 30.4633 8.58668 30.6146 8.62854 30.731C8.64926 30.7886 8.67719 30.845 8.71515 30.8897C8.75262 30.9338 8.81318 30.9811 8.89615 30.9817L8.89658 30.9817L15.4242 31.0072H15.4248H15.425C15.5082 31.0072 15.569 30.9602 15.6067 30.9161C15.6448 30.8715 15.6727 30.8152 15.6935 30.7577C15.7354 30.6416 15.7587 30.4904 15.7589 30.3299L15.7589 30.3299C15.7589 30.1693 15.7358 30.0179 15.6939 29.9015C15.6732 29.8439 15.6453 29.7874 15.6073 29.7427C15.5698 29.6986 15.509 29.6512 15.4259 29.6509C15.4258 29.6509 15.4258 29.6509 15.4258 29.6509L8.89821 29.6254Z" fill="#D71635" stroke="#D71635" stroke-width="0.27907"/>
<path d="M8.89821 35.9615V35.9615H8.89766H8.89739C8.81427 35.9615 8.75341 36.0086 8.71576 36.0527C8.67768 36.0973 8.64969 36.1536 8.62894 36.2111C8.58701 36.3271 8.56374 36.4784 8.56359 36.6388L8.56359 36.6389C8.56352 36.7994 8.58668 36.9508 8.62854 37.0672C8.64926 37.1248 8.67719 37.1812 8.71515 37.2259C8.75262 37.27 8.81318 37.3173 8.89615 37.3179L8.89658 37.3179L15.4242 37.3434H15.4248H15.425C15.5082 37.3434 15.569 37.2964 15.6067 37.2523C15.6448 37.2077 15.6727 37.1514 15.6935 37.0939C15.7354 36.9778 15.7587 36.8266 15.7589 36.6661L15.7589 36.6661C15.7589 36.5055 15.7358 36.354 15.6939 36.2377C15.6732 36.1801 15.6453 36.1236 15.6073 36.0789C15.5698 36.0347 15.509 35.9874 15.4259 35.9871C15.4258 35.9871 15.4258 35.9871 15.4258 35.9871L8.89821 35.9615Z" fill="#D71635" stroke="#D71635" stroke-width="0.27907"/>
<path fill-rule="evenodd" clip-rule="evenodd" d="M20.1844 32.9948L18.9824 34.1832L22.846 38.0051L31.4316 29.5121L30.2296 28.3224L22.846 35.627L20.1844 32.9948Z" fill="#D71635"/>
</svg>
