<svg width="45" height="45" viewBox="0 0 45 45" fill="none" xmlns="http://www.w3.org/2000/svg">
<path d="M21.9413 9.0414L21.8046 9.0415V9.17815V22.8942V22.9742L21.8744 23.0134L22.1733 23.1815L22.1734 23.1815L31.7385 28.562L31.857 28.6286L31.9243 28.5106L32.5219 27.4644L32.5902 27.3448L32.4702 27.2773L23.2741 22.1045V9.17724V9.04037L23.1373 9.04048L21.9413 9.0414ZM22.5394 0.863242C10.5855 0.863242 0.863242 10.5855 0.863242 22.5394C0.863242 34.4932 10.5855 44.2155 22.5394 44.2155C34.4932 44.2155 44.2155 34.4932 44.2155 22.5394C44.2155 10.5855 34.4932 0.863242 22.5394 0.863242ZM22.5394 2.36943C33.6963 2.36943 42.7101 11.3826 42.7101 22.5401C42.7101 33.6977 33.6969 42.7108 22.5394 42.7108C11.3818 42.7108 2.36868 33.6977 2.36868 22.5401C2.36868 11.3826 11.3818 2.36943 22.5394 2.36943Z" fill="#D71635" stroke="#D71635" stroke-width="0.273516"/>
</svg>
