<svg width="176" height="43" viewBox="0 0 176 43" fill="none" xmlns="http://www.w3.org/2000/svg">
<path d="M17.5818 9.20681C16.2153 9.20681 14.8489 9.66716 13.4824 10.6799C12.207 11.6006 11.2961 12.9816 10.6584 14.7309C10.2029 16.204 10.1118 17.4929 10.4762 18.5978C10.9317 19.7026 11.9337 20.3471 13.5735 20.3471C15.4865 20.3471 17.764 19.4264 20.3147 17.6771L16.3975 28.2649C13.4824 29.1856 11.2961 29.5539 9.74741 29.5539C7.46998 29.5539 5.46584 29.0015 3.73499 27.8967C2.00414 26.7918 0.819876 25.1346 0.273292 22.925C-0.273292 20.7153 0 18.0454 1.09317 14.823C1.91304 12.3371 3.2795 9.94336 5.01035 7.73372C6.7412 5.43202 8.92754 3.59066 11.3872 2.20964C13.9379 0.736545 16.7619 0.0920682 19.8592 0.0920682C21.8634 0.0920682 23.7764 0.552409 25.6894 1.47309L22.1366 11.9689C21.1346 10.1275 19.5859 9.20681 17.5818 9.20681ZM0.455487 42.5355H10.294C10.294 42.1672 10.294 41.891 10.294 41.7069H0.273292C0.364389 41.9831 0.364389 42.2593 0.455487 42.5355ZM0 38.8528C0 39.221 0 39.5893 0.0910973 39.9576H11.1139C11.6605 39.4052 12.4803 39.221 13.5735 39.221C14.5756 39.221 15.6687 39.4052 16.9441 39.9576H19.5859L19.2215 38.8528H0ZM21.9545 38.4845L22.3188 39.6814H31.6108L31.5197 39.4052H40.6294L40.3561 38.4845H21.9545ZM17.1263 33.1445H1.91304C1.54865 33.6049 1.18427 34.2494 0.910973 34.8938H17.764L17.1263 33.1445ZM16.3975 31.2111C13.4824 30.3825 11.2961 29.9221 9.74741 29.9221C7.46998 29.9221 5.46584 30.4746 3.73499 31.5794C3.3706 31.7635 3.09731 32.0397 2.73292 32.3159H16.7619L16.3975 31.2111ZM22.8654 41.3386L23.1387 42.1672H32.5217L32.2484 41.3386H22.8654ZM39.354 35.6304H20.9524L21.4079 37.1035H39.8095L39.354 35.6304ZM38.352 32.7763H19.9503L20.588 34.5256H38.9896L38.352 32.7763ZM69.1429 32.0397L68.1408 30.2904H58.2112L59.3954 32.0397H69.1429ZM37.5321 30.2904H19.1304L19.677 32.0397H38.0787L37.5321 30.2904ZM18.1284 35.9986H0.455487C0.364389 36.1828 0.364389 36.3669 0.273292 36.5511C0.182195 36.8273 0.182195 37.1035 0.0910973 37.3797H18.6749L18.1284 35.9986ZM144.116 37.2876C143.66 36.8273 143.205 36.3669 142.841 35.9986H120.34C120.248 36.3669 120.066 36.8273 119.975 37.2876V37.3797H144.207C144.116 37.3797 144.116 37.2876 144.116 37.2876ZM139.288 33.1445H121.979C121.524 33.6049 121.159 34.2494 120.795 34.8938H141.565C140.836 34.2494 140.017 33.6049 139.288 33.1445ZM113.963 30.2904H104.762L104.398 32.0397H114.6L113.963 30.2904ZM137.193 31.8556C134.551 30.5666 132 29.9221 129.54 29.9221C127.081 29.9221 124.986 30.5666 123.255 31.8556C123.072 32.0397 122.89 32.1318 122.799 32.3159H137.921C137.648 32.1318 137.375 32.0397 137.193 31.8556ZM165.342 32.0397L164.704 30.2904H146.302L146.849 32.0397H165.342ZM114.874 32.7763H104.306L103.942 34.5256H115.42L114.874 32.7763ZM77.5238 34.5256H86.9068V32.7763H77.0683L77.5238 34.5256ZM86.9068 32.0397L86.8157 30.2904H76.795L76.9772 32.0397H86.9068ZM116.787 38.4845H103.122L102.849 39.6814H117.151L116.787 38.4845ZM115.785 35.6304H103.669L103.395 37.1035H116.331L115.785 35.6304ZM165.615 32.7763H147.122L147.76 34.5256H166.161L165.615 32.7763ZM120.066 42.5355H129.723C129.723 42.1672 129.814 41.891 129.814 41.7069H119.975C119.975 41.9831 120.066 42.2593 120.066 42.5355ZM91.8261 41.3386L92.1905 42.1672H101.027L100.845 41.3386H91.8261ZM57.6646 30.2904H40.1739L40.7205 32.0397H58.2112L57.6646 30.2904ZM98.9317 35.6304H89.913L90.3685 37.1035H99.3872L98.9317 35.6304ZM99.9337 38.4845H90.9151L91.2795 39.6814H100.298L99.9337 38.4845ZM102.484 41.3386L102.302 42.1672H118.062L117.789 41.3386H102.484ZM158.783 39.4052H167.801L167.528 38.4845H149.126L149.491 39.6814H158.783V39.4052ZM145.3 38.8528H119.793C119.793 39.221 119.793 39.5893 119.793 39.9576H130.816C131.271 39.4972 131.909 39.221 132.729 39.221C133.549 39.221 134.369 39.4972 135.097 39.9576H146.12C145.847 39.5893 145.574 39.221 145.3 38.8528ZM150.037 41.3386L150.402 42.1672H159.694L159.42 41.3386H150.037ZM166.526 35.6304H148.124L148.58 37.1035H167.072L166.526 35.6304ZM137.284 41.7069C137.466 41.891 137.739 42.1672 137.921 42.5355H147.578C147.395 42.2593 147.304 41.9831 147.122 41.7069H137.284ZM97.9296 32.7763H88.911L89.5487 34.5256H98.5673L97.9296 32.7763ZM69.5983 32.7763H59.942L61.0352 34.5256H70.5093L69.5983 32.7763ZM52.1077 38.4845H42.9068L43.3623 39.6814H52.472L52.1077 38.4845ZM43.9089 41.3386L44.1822 42.1672H60.7619L60.4886 41.3386H43.9089ZM59.4865 35.6304H41.9959L42.4513 37.1035H59.942L59.4865 35.6304ZM58.4845 32.7763H40.9938L41.5404 34.5256H59.1222L58.4845 32.7763ZM86.9979 38.4845H63.677L64.4969 39.6814H86.9979V38.4845ZM65.5901 41.3386L66.1367 42.1672H74.882L74.4265 41.3386H65.5901ZM78.0704 41.3386L78.1615 42.1672H87.089V41.3386H78.0704ZM86.9979 35.6304H61.764L62.766 37.1035H86.9979V35.6304ZM97.1097 30.2904H88.0911L88.6377 32.0397H97.6563L97.1097 30.2904ZM172.356 0.644477C174.451 0.644477 176 2.20964 176 4.23514C176 6.26063 174.451 7.82579 172.356 7.82579C170.352 7.82579 168.712 6.26063 168.712 4.23514C168.712 2.20964 170.352 0.644477 172.356 0.644477ZM172.356 1.38102C170.807 1.38102 169.623 2.66998 169.623 4.23514C169.623 5.80029 170.807 7.08925 172.356 7.08925C173.996 7.08925 175.089 5.80029 175.089 4.23514C175.089 2.66998 173.996 1.38102 172.356 1.38102ZM171.81 6.0765H170.99V2.48584C171.354 2.39377 171.81 2.39377 172.356 2.39377C172.994 2.39377 173.358 2.48584 173.631 2.66998C173.814 2.85411 173.905 3.13032 173.905 3.40652C173.905 3.86686 173.631 4.14307 173.176 4.3272C173.54 4.41927 173.723 4.69548 173.905 5.24788C173.996 5.80029 173.996 5.98443 174.087 6.0765H173.267C173.085 5.98443 173.085 5.61616 172.903 5.24788C172.903 4.87961 172.629 4.69548 172.174 4.69548H171.81V6.0765ZM171.81 4.051H172.265C172.721 4.051 173.085 3.86686 173.085 3.49859C173.085 3.22239 172.812 2.94618 172.265 2.94618C172.083 2.94618 171.901 3.03825 171.81 3.03825V4.051ZM146.302 28.9094L155.959 0.644477H165.251L158.783 19.7947H167.801L164.704 28.9094H146.302ZM139.652 0C141.565 0 143.296 0.460341 144.663 1.19689C146.12 1.93343 147.213 3.03825 148.033 4.3272C148.762 5.70823 149.217 7.27338 149.308 9.11475C149.4 10.9561 149.126 12.7975 148.489 14.823C147.578 17.4929 146.12 19.9788 144.116 22.1884C142.021 24.4901 139.743 26.3315 137.193 27.6204C134.551 28.9094 132 29.5539 129.54 29.5539C127.081 29.5539 124.986 28.9094 123.255 27.6204C121.524 26.3315 120.522 24.4901 119.975 22.1884C119.52 19.9788 119.793 17.4929 120.704 14.823C121.342 12.7975 122.344 10.9561 123.71 9.11475C125.077 7.27338 126.625 5.70823 128.356 4.3272C130.087 2.94618 131.909 1.93343 133.822 1.19689C135.735 0.368273 137.648 0 139.652 0ZM136.373 9.57509C135.188 9.57509 133.913 10.0354 132.729 11.1402C131.453 12.153 130.634 13.4419 130.087 14.915C129.631 16.3881 129.631 17.6771 130.087 18.6898C130.634 19.7026 131.545 20.255 132.729 20.255C133.913 20.255 135.097 19.7026 136.373 18.6898C137.557 17.6771 138.468 16.3881 139.014 14.915C139.47 13.3499 139.47 12.153 139.014 11.0482C138.468 10.0354 137.557 9.57509 136.373 9.57509ZM101.756 14.2706L100.571 18.7819L97.1097 28.9094H88.0911L97.7474 0.644477H106.948L109.863 15.4674L111.412 10.1275L114.6 0.644477H123.619L113.963 28.9094H104.762L101.756 14.2706ZM58.2112 28.9094L77.0683 0.644477H87.4534L86.8157 28.9094H76.795L77.2505 25.3187H70.236L68.1408 28.9094H58.2112ZM77.8882 18.5978L79.2547 9.20681H79.0725L74.0621 18.5978H77.8882ZM40.1739 28.9094L49.7391 0.644477H67.1387L64.4969 8.3782H56.2981L55.3872 11.0482H62.766L60.3064 18.3216H52.9275L51.9255 21.2677H60.3064L57.6646 28.9094H40.1739ZM19.1304 28.9094L28.7868 0.644477H38.0787L31.5197 19.7947H40.6294L37.5321 28.9094H19.1304Z" fill="#D71635"/>
</svg>
