<svg width="208" height="51" viewBox="0 0 208 51" fill="none" xmlns="http://www.w3.org/2000/svg">
<path d="M20.7785 10.8808C19.1636 10.8808 17.5487 11.4248 15.9337 12.6217C14.4265 13.7098 13.3499 15.3419 12.5963 17.4093C12.058 19.1502 11.9503 20.6735 12.381 21.9792C12.9193 23.2849 14.1035 24.0465 16.0414 24.0465C18.3023 24.0465 20.9938 22.9584 24.0083 20.8911L19.3789 33.404C15.9337 34.4921 13.3499 34.9273 11.5197 34.9273C8.82816 34.9273 6.45963 34.2745 4.41408 32.9688C2.36853 31.6631 0.968944 29.7045 0.322981 27.0931C-0.322981 24.4818 0 21.3263 1.29193 17.5181C2.26087 14.5802 3.87578 11.7512 5.92133 9.13986C7.96687 6.41966 10.5507 4.2435 13.4576 2.61139C16.472 0.870462 19.8095 0.108808 23.47 0.108808C25.8385 0.108808 28.0994 0.652847 30.3602 1.74092L26.1615 14.145C24.9772 11.9689 23.147 10.8808 20.7785 10.8808ZM0.538302 50.2692H12.1656C12.1656 49.834 12.1656 49.5076 12.1656 49.2899H0.322981C0.430642 49.6164 0.430642 49.9428 0.538302 50.2692ZM0 45.9169C0 46.3521 0 46.7874 0.10766 47.2226H13.1346C13.7805 46.5697 14.7495 46.3521 16.0414 46.3521C17.2257 46.3521 18.5176 46.5697 20.0248 47.2226H23.147L22.7164 45.9169H0ZM25.9462 45.4817L26.3768 46.8962H37.3582L37.2505 46.5697H48.0166L47.6936 45.4817H25.9462ZM20.2402 39.1708H2.26087C1.83023 39.7149 1.39959 40.4765 1.0766 41.2382H20.9938L20.2402 39.1708ZM19.3789 36.8858C15.9337 35.9066 13.3499 35.3625 11.5197 35.3625C8.82816 35.3625 6.45963 36.0154 4.41408 37.3211C3.98344 37.5387 3.66046 37.8651 3.22981 38.1915H19.8095L19.3789 36.8858ZM27.0228 48.8547L27.3458 49.834H38.4348L38.1118 48.8547H27.0228ZM46.5093 42.1086H24.7619L25.3002 43.8495H47.0476L46.5093 42.1086ZM45.3251 38.7356H23.5776L24.3313 40.8029H46.0787L45.3251 38.7356ZM81.7143 37.8651L80.53 35.7978H68.795L70.1946 37.8651H81.7143ZM44.3561 35.7978H22.6087L23.2547 37.8651H45.0021L44.3561 35.7978ZM21.4244 42.5439H0.538302C0.430642 42.7615 0.430642 42.9791 0.322981 43.1967C0.215321 43.5231 0.215321 43.8495 0.10766 44.176H22.0704L21.4244 42.5439ZM170.319 44.0672C169.781 43.5231 169.242 42.9791 168.812 42.5439H142.219C142.112 42.9791 141.896 43.5231 141.789 44.0672V44.176H170.426C170.319 44.176 170.319 44.0672 170.319 44.0672ZM164.613 39.1708H144.157C143.619 39.7149 143.188 40.4765 142.758 41.2382H167.304C166.443 40.4765 165.474 39.7149 164.613 39.1708ZM134.683 35.7978H123.81L123.379 37.8651H135.437L134.683 35.7978ZM162.137 37.6475C159.014 36.1242 156 35.3625 153.093 35.3625C150.186 35.3625 147.71 36.1242 145.665 37.6475C145.449 37.8651 145.234 37.9739 145.126 38.1915H162.998C162.675 37.9739 162.352 37.8651 162.137 37.6475ZM195.404 37.8651L194.65 35.7978H172.903L173.549 37.8651H195.404ZM135.76 38.7356H123.271L122.841 40.8029H136.406L135.76 38.7356ZM91.619 40.8029H102.708V38.7356H91.0807L91.619 40.8029ZM102.708 37.8651L102.6 35.7978H90.7578L90.9731 37.8651H102.708ZM138.021 45.4817H121.872L121.549 46.8962H138.451L138.021 45.4817ZM136.836 42.1086H122.518L122.195 43.8495H137.482L136.836 42.1086ZM195.727 38.7356H173.872L174.625 40.8029H196.373L195.727 38.7356ZM141.896 50.2692H153.308C153.308 49.834 153.416 49.5076 153.416 49.2899H141.789C141.789 49.6164 141.896 49.9428 141.896 50.2692ZM108.522 48.8547L108.952 49.834H119.395L119.18 48.8547H108.522ZM68.1491 35.7978H47.4783L48.1242 37.8651H68.795L68.1491 35.7978ZM116.919 42.1086H106.261L106.799 43.8495H117.458L116.919 42.1086ZM118.104 45.4817H107.445L107.876 46.8962H118.534L118.104 45.4817ZM121.118 48.8547L120.903 49.834H139.528L139.205 48.8547H121.118ZM187.652 46.5697H198.311L197.988 45.4817H176.24L176.671 46.8962H187.652V46.5697ZM171.718 45.9169H141.574C141.574 46.3521 141.574 46.7874 141.574 47.2226H154.6C155.139 46.6786 155.892 46.3521 156.861 46.3521C157.83 46.3521 158.799 46.6786 159.66 47.2226H172.687C172.364 46.7874 172.041 46.3521 171.718 45.9169ZM177.317 48.8547L177.747 49.834H188.729L188.406 48.8547H177.317ZM196.803 42.1086H175.056L175.594 43.8495H197.449L196.803 42.1086ZM162.244 49.2899C162.46 49.5076 162.783 49.834 162.998 50.2692H174.41C174.195 49.9428 174.087 49.6164 173.872 49.2899H162.244ZM115.735 38.7356H105.077L105.83 40.8029H116.489L115.735 38.7356ZM82.2526 38.7356H70.8406L72.1325 40.8029H83.3292L82.2526 38.7356ZM61.5818 45.4817H50.7081L51.2464 46.8962H62.0124L61.5818 45.4817ZM51.8923 48.8547L52.2153 49.834H71.8095L71.4865 48.8547H51.8923ZM70.3023 42.1086H49.6315L50.1698 43.8495H70.8406L70.3023 42.1086ZM69.118 38.7356H48.4472L49.0932 40.8029H69.8716L69.118 38.7356ZM102.816 45.4817H75.2547L76.2236 46.8962H102.816V45.4817ZM77.5155 48.8547L78.1615 49.834H88.4969L87.9586 48.8547H77.5155ZM92.265 48.8547L92.3727 49.834H102.923V48.8547H92.265ZM102.816 42.1086H72.9938L74.1781 43.8495H102.816V42.1086ZM114.766 35.7978H104.108L104.754 37.8651H115.412L114.766 35.7978ZM203.694 0.761655C206.17 0.761655 208 2.61139 208 5.00516C208 7.39893 206.17 9.24866 203.694 9.24866C201.325 9.24866 199.387 7.39893 199.387 5.00516C199.387 2.61139 201.325 0.761655 203.694 0.761655ZM203.694 1.63212C201.863 1.63212 200.464 3.15543 200.464 5.00516C200.464 6.85489 201.863 8.3782 203.694 8.3782C205.631 8.3782 206.923 6.85489 206.923 5.00516C206.923 3.15543 205.631 1.63212 203.694 1.63212ZM203.048 7.18132H202.079V2.93781C202.509 2.829 203.048 2.829 203.694 2.829C204.447 2.829 204.878 2.93781 205.201 3.15543C205.416 3.37304 205.524 3.69947 205.524 4.02589C205.524 4.56993 205.201 4.89635 204.663 5.11397C205.093 5.22277 205.308 5.5492 205.524 6.20204C205.631 6.85489 205.631 7.07251 205.739 7.18132H204.77C204.555 7.07251 204.555 6.63728 204.34 6.20204C204.34 5.76681 204.017 5.5492 203.478 5.5492H203.048V7.18132ZM203.048 4.78754H203.586C204.124 4.78754 204.555 4.56993 204.555 4.1347C204.555 3.80827 204.232 3.48185 203.586 3.48185C203.371 3.48185 203.155 3.59066 203.048 3.59066V4.78754ZM172.903 34.1657L184.315 0.761655H195.296L187.652 23.3937H198.311L194.65 34.1657H172.903ZM165.043 0C167.304 0 169.35 0.544039 170.965 1.4145C172.687 2.28496 173.979 3.59066 174.948 5.11397C175.81 6.74608 176.348 8.59582 176.455 10.772C176.563 12.9481 176.24 15.1243 175.487 17.5181C174.41 20.6735 172.687 23.6113 170.319 26.2227C167.843 28.9429 165.151 31.119 162.137 32.6423C159.014 34.1657 156 34.9273 153.093 34.9273C150.186 34.9273 147.71 34.1657 145.665 32.6423C143.619 31.119 142.435 28.9429 141.789 26.2227C141.251 23.6113 141.574 20.6735 142.65 17.5181C143.404 15.1243 144.588 12.9481 146.203 10.772C147.818 8.59582 149.648 6.74608 151.694 5.11397C153.739 3.48185 155.892 2.28496 158.153 1.4145C160.414 0.435231 162.675 0 165.043 0ZM161.168 11.316C159.768 11.316 158.261 11.8601 156.861 13.1657C155.354 14.3626 154.385 15.8859 153.739 17.6269C153.201 19.3678 153.201 20.8911 153.739 22.088C154.385 23.2849 155.462 23.9377 156.861 23.9377C158.261 23.9377 159.66 23.2849 161.168 22.088C162.567 20.8911 163.644 19.3678 164.29 17.6269C164.828 15.7771 164.828 14.3626 164.29 13.0569C163.644 11.8601 162.567 11.316 161.168 11.316ZM120.257 16.8652L118.857 22.1968L114.766 34.1657H104.108L115.52 0.761655H126.393L129.839 18.2797L131.669 11.9689L135.437 0.761655H146.095L134.683 34.1657H123.81L120.257 16.8652ZM68.795 34.1657L91.0807 0.761655H103.354L102.6 34.1657H90.7578L91.2961 29.9221H83.0062L80.53 34.1657H68.795ZM92.0497 21.9792L93.6646 10.8808H93.4493L87.528 21.9792H92.0497ZM47.4783 34.1657L58.7826 0.761655H79.3458L76.2236 9.90151H66.5342L65.4576 13.0569H74.1781L71.2712 21.6528H62.5507L61.3665 25.1346H71.2712L68.1491 34.1657H47.4783ZM22.6087 34.1657L34.0207 0.761655H45.0021L37.2505 23.3937H48.0166L44.3561 34.1657H22.6087Z" fill="#D71635"/>
</svg>
